<?xml version="1.0" encoding="UTF-8" standalone="no"?>
<!DOCTYPE svg PUBLIC "-//W3C//DTD SVG 1.1//EN" "http://www.w3.org/Graphics/SVG/1.1/DTD/svg11.dtd">
<svg width="100%" height="100%" viewBox="0 0 500 500" version="1.1" xmlns="http://www.w3.org/2000/svg" xmlns:xlink="http://www.w3.org/1999/xlink" xml:space="preserve" xmlns:serif="http://www.serif.com/" style="fill-rule:evenodd;clip-rule:evenodd;">
    <g transform="matrix(1,0,0,1,-262,-262)">
        <g transform="matrix(0.691001,0,0,0.691001,149.361,148.299)">
            <path d="M303.12,313.12C303.013,313.76 302.92,314.4 302.84,315.04C302.74,315.82 302.707,316.61 302.74,317.41C303.233,330.05 304.9,340.883 307.74,349.91C314.32,370.81 324.947,390.523 339.62,409.05C346.8,418.117 354.507,426.877 362.74,435.33C378.02,451.017 394.23,465.863 411.37,479.87C428.36,493.76 445.86,508.07 463.33,521.89C482.737,537.25 500.717,553.46 517.27,570.52C530.27,583.927 541.347,598.327 550.5,613.72C563.933,636.313 572.257,660.793 575.47,687.16C575.857,690.34 575.933,698.643 575.7,712.07C575.67,713.66 575.24,715.14 574.9,716.68C574.567,718.187 574.82,718.29 575.66,716.99C577.327,714.417 578.78,711.62 580.02,708.6C583.673,699.713 586.573,691.293 588.72,683.34C594.51,661.88 594.93,638.33 592.13,615.71C590.06,598.95 586.82,582.1 587.35,565.65C588.24,538.12 603.42,516.92 631.38,511.27C634.227,510.69 637.967,510.29 642.6,510.07C642.96,510.057 643.227,510.207 643.4,510.52C649.233,521.107 655.967,531.083 663.6,540.45C667.73,545.51 669.23,548.53 675.76,546.99C676.119,546.905 676.446,546.717 676.7,546.45L677.9,545.2C678.227,544.86 678.513,544.89 678.76,545.29C679.687,546.79 680.78,548.28 682.04,549.76C686.433,554.913 691.473,560.76 697.16,567.3C698.647,569.007 699.703,570.783 700.33,572.63C706.557,591.077 710.93,606.753 713.45,619.66C715.783,631.613 717.777,643.88 719.43,656.46C723.097,684.347 723.467,711.16 720.54,736.9C719.1,749.6 716.23,761.593 711.93,772.88C703.99,793.73 689.98,811.35 666.53,813.66C654.38,814.85 640.8,809.81 634.77,798.51C630.657,790.803 630.523,783.04 634.37,775.22C635.857,772.193 638.247,770.04 641.54,768.76C644.21,767.73 650.43,767.93 651.41,771.52C653.47,779.08 660.59,783.31 667.94,780.84C676.49,777.96 680.64,768.56 679.87,760.15C679.357,754.55 677.233,749.473 673.5,744.92C664.2,733.593 652.03,728.61 636.99,729.97C613.55,732.09 594.29,749.86 588.4,772.27C581.79,797.43 587.92,823.01 604.85,842.6C619.64,859.71 639.87,869.11 662.59,870.51C679.49,871.56 697.43,869.21 713.27,862.38C746.19,848.19 770.08,823.02 787.16,791.23C799.57,768.12 807.82,744.21 813.15,719.06C819.537,688.907 823.18,657.947 824.08,626.18C824.347,616.747 824.467,606.607 824.44,595.76C824.433,595.422 824.593,595.098 824.87,594.89C825.9,594.12 827.36,593.82 828.52,593.15C838.833,587.177 847.187,580.567 853.58,573.32C861.63,564.2 866.66,552.98 871.64,541.64C872.387,539.953 872.613,538.373 872.32,536.9C871.03,530.43 864.81,526.84 859.14,531.62C848.8,540.33 837.74,545.8 824.02,547.91C823.986,547.915 823.953,547.918 823.919,547.918C823.572,547.918 823.282,547.645 823.26,547.3C822.567,536.967 821.563,527.287 820.25,518.26C816.877,495.073 811.92,470.143 805.38,443.47C794.22,397.98 780.98,355.34 762.2,314.14C754.387,296.98 744.803,280.177 733.45,263.73C727.27,254.77 719.86,246.1 712.61,238.54C682.53,207.2 645.323,191.167 600.99,190.44C589.957,190.26 577.71,190.943 564.25,192.49C562.9,192.64 561.65,192.56 560.37,192.07C556.037,190.417 551.497,188.63 546.75,186.71C531.27,180.437 515.603,175.347 499.75,171.44C466.59,163.25 431.8,163.66 399.31,171.63C392.27,173.363 387.167,174.723 384,175.71C360.533,183.057 339.133,194.24 319.8,209.26C314.74,213.187 309.79,217.593 304.95,222.48C285.9,241.7 270.45,263.41 260.49,288.86C244.757,329.06 243.45,369.95 256.57,411.53C261.343,426.657 267.613,441.167 275.38,455.06C285.18,472.56 296.42,489.25 309.31,504.53C331.517,530.85 356.977,554.447 385.69,575.32C410.3,593.22 435.06,610.38 458.6,628.4C465.287,633.52 471.413,638.877 476.98,644.47C482.52,650.04 488.49,655.86 493.45,661.7C512.73,684.37 527.05,712.18 532.48,741.47C535.65,758.55 535.43,774.91 533.42,792.73C533.167,794.977 533.51,795.07 534.45,793.01C536.65,788.17 539.28,783.73 541.29,778.83C544.797,770.23 547.317,762.787 548.85,756.5C556.37,725.74 555.257,695.31 545.51,665.21C536.53,637.46 520.98,611.89 501.08,591.25C492.58,582.437 484.3,574.497 476.24,567.43C460.807,553.897 444.403,540.343 427.03,526.77C422.063,522.89 416.82,518.647 411.3,514.04C381.98,489.55 352.17,464.94 329.01,434.96C314.803,416.56 305.23,396.023 300.29,373.35C298.957,367.223 298.18,360.58 297.96,353.42C297.56,340.387 298.87,328.11 301.89,316.59C302.203,315.41 302.58,314.243 303.02,313.09C303.14,312.783 303.173,312.793 303.12,313.12" style="fill:none;fill-rule:nonzero;stroke:rgb(148,158,160);stroke-width:2px;"/>
        </g>
        <g transform="matrix(0.691001,0,0,0.691001,149.361,148.299)">
            <path d="M222.63,468.97C226.79,485.87 229.593,496.547 231.04,501C244.72,543.13 266.98,582.95 298.69,613.25C310.26,624.3 323.12,635.54 335.88,644.36C348.78,653.28 357.123,658.947 360.91,661.36C371.11,667.873 381.187,674.55 391.14,681.39C420.28,701.43 447.72,727.66 461.94,760.78C476.79,795.36 475.07,832.06 459.69,866.35C457.543,871.143 455,875.303 452.06,878.83C451.033,880.057 450.06,881.307 449.14,882.58C448.78,883.073 448.847,883.14 449.34,882.78C462.65,873.02 475.27,861.74 484.83,847.84C497.39,829.59 505.12,810.94 508.26,789.2C514.46,746.26 496.58,703.14 466.84,672.05C449.75,654.19 428.72,638.34 407.57,623.94C398.24,617.59 388.86,610.68 379.53,603.98" style="fill:none;fill-rule:nonzero;stroke:rgb(154,196,128);stroke-width:2px;"/>
        </g>
        <g transform="matrix(0.691001,0,0,0.691001,149.361,148.299)">
            <path d="M379.53,603.98C353.67,585.28 328.91,565.07 306.7,542.06C297.2,532.21 289.04,522.04 280.8,511.18C267.23,493.26 255.17,473.87 245.85,453.38C242.77,446.607 240.677,441.897 239.57,439.25C227.763,410.963 222.213,381.547 222.92,351C222.953,349.647 222.787,349.623 222.42,350.93C220.24,358.76 218.43,366.42 217.49,374.47C213.77,406 214.96,438.08 222.63,468.97" style="fill:none;fill-rule:nonzero;stroke:rgb(170,223,132);stroke-width:2px;"/>
        </g>
        <g transform="matrix(0.691001,0,0,0.691001,149.361,148.299)">
            <path d="M379.53,603.98L381.69,607.5C381.863,607.78 382.113,607.907 382.44,607.88C382.713,607.853 382.983,607.903 383.25,608.03C383.397,608.097 383.437,608.207 383.37,608.36C383.323,608.46 383.253,608.523 383.16,608.55C382.56,608.703 382.493,608.987 382.96,609.4C383.033,609.46 383.047,609.533 383,609.62C382.873,609.88 382.677,609.963 382.41,609.87C382.077,609.75 381.88,609.843 381.82,610.15C381.787,610.35 381.69,610.513 381.53,610.64C381.403,610.74 381.297,610.763 381.21,610.71C380.93,610.537 380.723,610.603 380.59,610.91C379.717,612.957 378.507,614.69 376.96,616.11C376.72,616.33 376.543,616.597 376.43,616.91C375.87,618.42 374.55,618.94 373.89,620.31C373.69,620.717 373.36,621.007 372.9,621.18C372.62,621.287 372.42,621.477 372.3,621.75C371.947,622.563 371.333,623.073 370.46,623.28C369.133,623.6 368.073,624.727 367.28,626.66C367.225,626.8 367.256,626.961 367.36,627.07C367.527,627.237 367.523,627.453 367.35,627.72C367.245,627.886 367.038,627.963 366.84,627.91C365.307,627.47 364.14,626.667 363.34,625.5C362.433,624.187 361.483,623.95 360.49,624.79" style="fill:none;fill-rule:nonzero;stroke:rgb(69,164,5);stroke-width:2px;"/>
        </g>
        <g transform="matrix(0.691001,0,0,0.691001,149.361,148.299)">
            <path d="M360.49,624.79C346.71,613.8 332.58,603.37 319.59,591.42C308.617,581.32 297.887,570.963 287.4,560.35C284.193,557.11 277.317,548.92 266.77,535.78" style="fill:none;fill-rule:nonzero;stroke:rgb(170,223,132);stroke-width:2px;"/>
        </g>
        <g transform="matrix(0.691001,0,0,0.691001,149.361,148.299)">
            <path d="M266.77,535.78C263.97,532.527 261.523,528.947 259.43,525.04C255.79,518.247 252.197,511.68 248.65,505.34C246.683,501.82 244.87,498.217 243.21,494.53C241.483,490.697 239.727,487.07 237.94,483.65C235.233,478.443 232.57,473.12 229.95,467.68C229.79,467.347 229.527,467.167 229.16,467.14C228.827,467.12 228.553,466.98 228.34,466.72C227.993,466.287 227.597,466.237 227.15,466.57C226.43,467.117 225.563,467.41 224.55,467.45C224.297,467.457 224.123,467.347 224.03,467.12C223.483,465.767 223.077,465.813 222.81,467.26C222.77,467.48 222.71,468.05 222.63,468.97" style="fill:none;fill-rule:nonzero;stroke:rgb(69,164,5);stroke-width:2px;"/>
        </g>
        <g transform="matrix(0.691001,0,0,0.691001,149.361,148.299)">
            <path d="M266.77,535.78C270.983,542.387 275.85,549.42 281.37,556.88C299.53,581.41 322.18,603.14 346.65,621.08C351.977,624.987 357.363,628.813 362.81,632.56C365.41,634.347 370.817,637.803 379.03,642.93C384.237,646.17 389.55,649.753 394.97,653.68C395.63,654.153 396.323,654.583 397.05,654.97C397.15,655.023 397.233,655.003 397.3,654.91L397.3,654.9C397.373,654.793 397.36,654.697 397.26,654.61C391.6,650.14 386.34,645.15 380.67,640.72C373.903,635.447 367.177,630.137 360.49,624.79" style="fill:none;fill-rule:nonzero;stroke:rgb(154,196,128);stroke-width:2px;"/>
        </g>
        <g transform="matrix(0.691001,0,0,0.691001,149.361,148.299)">
            <path d="M177.44,530.04C176.647,549.007 177.537,566.04 180.11,581.14C182.663,596.147 186.963,611.3 193.01,626.6C198.63,640.827 206.363,654.483 216.21,667.57C229.95,685.837 245.377,701.377 262.49,714.19C284.97,731.02 309.4,745.35 334.23,760.6C343.87,766.527 352.72,772.38 360.78,778.16C387.48,797.29 411.57,823.82 420.31,855.01C421.303,858.543 422.087,862.38 422.66,866.52C422.66,866.56 422.683,866.58 422.73,866.58L423,866.55C423.087,866.543 423.13,866.5 423.13,866.42C423.35,856.067 423.367,849.313 423.18,846.16C422.767,839.42 421.613,832.64 419.72,825.82C414.573,807.3 406.393,791.153 395.18,777.38C391.1,772.373 386.387,767.32 381.04,762.22C364.22,746.18 346.8,732.82 328.09,719.15C318.38,712.06 308.62,704.43 299.31,696.89C277.297,679.063 258.457,658.68 242.79,635.74C240.463,632.327 238.13,628.757 235.79,625.03" style="fill:none;fill-rule:nonzero;stroke:rgb(154,196,128);stroke-width:2px;"/>
        </g>
        <g transform="matrix(0.691001,0,0,0.691001,149.361,148.299)">
            <path d="M235.79,625.03C242.43,632.277 249.21,639.223 256.13,645.87C267.263,656.557 278.89,666.697 291.01,676.29" style="fill:none;fill-rule:nonzero;stroke:rgb(170,223,132);stroke-width:2px;"/>
        </g>
        <g transform="matrix(0.691001,0,0,0.691001,149.361,148.299)">
            <path d="M291.01,676.29C298.29,682.09 305.23,687.217 311.83,691.67C324.41,700.157 338.393,709.303 353.78,719.11C388.04,740.96 422.66,768.41 437.08,808.15C440.507,817.597 443.08,827.03 444.8,836.45C444.893,836.983 444.983,836.983 445.07,836.45C446.057,830.363 446.727,824.24 447.08,818.08C447.927,803.54 445.39,789.153 439.47,774.92C432.403,757.94 422.817,743.51 410.71,731.63C402.23,723.317 394.357,716.487 387.09,711.14C358.18,689.9 327.01,672.69 299.29,649.98" style="fill:none;fill-rule:nonzero;stroke:rgb(154,196,128);stroke-width:2px;"/>
        </g>
        <g transform="matrix(0.691001,0,0,0.691001,149.361,148.299)">
            <path d="M299.29,649.98C274.75,629.94 252.7,605.26 237.05,577.82C227.483,561.047 219.753,543.623 213.86,525.55C211.06,516.95 209.14,507.66 207.13,498.74C205.563,491.793 204.33,483.137 203.43,472.77C202.49,461.903 202.013,448.643 202,432.99C201.99,428.63 202.49,424.27 203.31,420.03C203.603,418.51 203.43,418.453 202.79,419.86C196.237,434.327 191.01,449.353 187.11,464.94C181.763,486.32 178.54,508.02 177.44,530.04" style="fill:none;fill-rule:nonzero;stroke:rgb(170,223,132);stroke-width:2px;"/>
        </g>
        <g transform="matrix(0.691001,0,0,0.691001,149.361,148.299)">
            <path d="M299.29,649.98C298.917,650.013 298.657,650.143 298.51,650.37C298.337,650.623 298.357,650.86 298.57,651.08L299.72,652.23C300.02,652.523 300,652.793 299.66,653.04C298.88,653.593 298.533,654.453 298.62,655.62C298.693,656.62 298.363,657.473 297.63,658.18C297.457,658.353 297.37,658.56 297.37,658.8L297.37,659.76C297.37,660.12 297.273,660.475 297.09,660.79C295.823,662.897 294.843,665.13 294.15,667.49C294.057,667.817 294.16,667.91 294.46,667.77C294.607,667.697 294.7,667.853 294.74,668.24C294.767,668.493 294.75,668.74 294.69,668.98C294.357,670.247 294.19,671.64 294.19,673.16C294.19,673.433 294.307,673.637 294.54,673.77C295.08,674.09 295.41,674.617 295.53,675.35C295.54,675.414 295.545,675.479 295.545,675.544C295.545,676.235 294.976,676.804 294.285,676.804C294.223,676.804 294.161,676.799 294.1,676.79C293.22,676.657 292.58,676.28 292.18,675.66C292.013,675.407 291.79,675.33 291.51,675.43C291.203,675.53 291.037,675.817 291.01,676.29" style="fill:none;fill-rule:nonzero;stroke:rgb(69,164,5);stroke-width:2px;"/>
        </g>
        <g transform="matrix(0.691001,0,0,0.691001,149.361,148.299)">
            <path d="M235.79,625.03C233.303,621.737 230.827,618.353 228.36,614.88C225.907,611.433 223.7,607.88 221.74,604.22C216.073,593.667 210.887,582.877 206.18,571.85C204.587,568.123 203.23,564.31 202.11,560.41C201.74,559.1 202.22,557.77 201.43,556.75C201.157,556.403 201.037,556.01 201.07,555.57C201.263,553.117 201.157,550.93 200.75,549.01C200.41,547.43 199.517,545.94 198.07,544.54C197.83,544.307 197.547,544.19 197.22,544.19C195.56,544.157 193.907,543.593 192.26,542.5C190.8,541.527 189.283,540.777 187.71,540.25C187.41,540.143 187.143,539.983 186.91,539.77C186.263,539.183 185.527,538.71 184.7,538.35C184.347,538.19 184.123,537.913 184.03,537.52C183.943,537.173 183.767,536.883 183.5,536.65L178.6,532.42C178.597,532.416 178.593,532.412 178.589,532.409C178.566,532.394 178.532,532.405 178.514,532.433C178.513,532.435 178.511,532.437 178.51,532.44C178.477,532.533 178.423,532.603 178.35,532.65C178.063,532.817 177.907,532.737 177.88,532.41C177.78,531.21 177.83,530.05 178.03,528.93C178.037,528.89 178.023,528.863 177.99,528.85C177.957,528.83 177.927,528.833 177.9,528.86C177.873,528.887 177.863,528.917 177.87,528.95C177.99,529.67 177.847,530.033 177.44,530.04" style="fill:none;fill-rule:nonzero;stroke:rgb(69,164,5);stroke-width:2px;"/>
        </g>
        <g transform="matrix(0.691001,0,0,0.691001,149.361,148.299)">
            <path d="M518.29,336.47C519.443,335.743 520.347,334.827 521,333.72C521.187,333.4 521.113,333.323 520.78,333.49C519.72,334.023 518.813,334.85 518.06,335.97" style="fill:none;fill-rule:nonzero;stroke:rgb(70,92,97);stroke-width:2px;"/>
        </g>
        <g transform="matrix(0.691001,0,0,0.691001,149.361,148.299)">
            <path d="M518.06,335.97C507.9,343.97 500.063,351.83 494.55,359.55C479.77,380.26 472.51,404.86 475.47,430.23C476.37,437.91 477.75,445.7 480.45,452.98C480.95,454.333 480.68,454.513 479.64,453.52C476.753,450.793 474.303,447.873 472.29,444.76C461.943,428.78 457.033,411.807 457.56,393.84C458.12,374.867 463.843,357.977 474.73,343.17C484.883,329.35 497.897,318.86 513.77,311.7C516.42,310.5 519.08,309.95 521.84,309.16C523.033,308.82 523.01,308.623 521.77,308.57C514.62,308.27 507.46,306.71 500.32,306.45C480.92,305.743 462.963,309.667 446.45,318.22C435.16,324.07 425.64,332.45 417.21,342.06C413.737,346.02 410.703,350.49 408.11,355.47C407.523,356.603 407.317,356.54 407.49,355.28C409.503,340.267 414.797,327.047 423.37,315.62C432.037,304.08 442.023,295.42 453.33,289.64C466.35,282.98 479.857,279.423 493.85,278.97C494.263,278.957 494.303,278.827 493.97,278.58C481.79,269.627 468.79,263.853 454.97,261.26C429.38,256.44 400.48,261.94 378.59,278.12C378.163,278.433 377.703,278.693 377.21,278.9C376.363,279.253 376.227,279.073 376.8,278.36C396.873,253.253 422.877,239.22 454.81,236.26C470.73,234.79 488.05,237.39 503.14,241.44C513.63,244.26 524.47,248.41 534.87,252.2C556.95,260.26 581.37,263.71 604.73,259.22C613.437,257.547 620.847,255.583 626.96,253.33C633.207,251.03 639.187,248.853 644.9,246.8C646.58,246.2 646.657,246.363 645.13,247.29C632.697,254.877 621.097,263.967 610.33,274.56C599.78,284.95 591.33,297.95 582.96,311.06C577.92,318.94 571.97,326.83 566.33,334.28C552.03,353.16 547.69,374.15 550.06,397.25C551.393,410.277 555.36,422.707 561.96,434.54" style="fill:none;fill-rule:nonzero;stroke:rgb(148,158,160);stroke-width:2px;"/>
        </g>
        <g transform="matrix(0.691001,0,0,0.691001,149.361,148.299)">
            <path d="M561.96,434.54C570.207,450.92 582.94,463.283 600.16,471.63C609.553,476.177 619.72,479.233 630.66,480.8C630.684,480.803 630.709,480.805 630.733,480.804C630.969,480.796 631.156,480.59 631.148,480.349C631.147,480.326 631.144,480.303 631.14,480.28C628.927,469.573 627.323,459.147 626.33,449" style="fill:none;fill-rule:nonzero;stroke:rgb(70,92,97);stroke-width:2px;"/>
        </g>
        <g transform="matrix(0.691001,0,0,0.691001,149.361,148.299)">
            <path d="M626.33,449C624.303,431.487 617.647,416.503 606.36,404.05C606.35,404.04 606.342,404.029 606.334,404.018C606.242,403.888 606.277,403.703 606.411,403.608C606.42,403.602 606.43,403.596 606.44,403.59C606.687,403.457 606.94,403.437 607.2,403.53C611.42,405 615.77,405.91 619.87,407.82C632.65,413.8 643.59,424.64 647.74,438.06C649.72,444.487 650.977,450.917 651.51,457.35C651.857,461.517 652.277,465.553 652.77,469.46C654.717,484.847 660.07,499.117 668.83,512.27C668.863,512.321 668.904,512.366 668.95,512.405C669.208,512.618 669.599,512.578 669.815,512.316C669.854,512.269 669.886,512.216 669.91,512.16C678.55,491.44 703.75,486.05 722.07,496.17C722.41,496.357 722.57,496.257 722.55,495.87C722.483,494.603 722.283,493.367 721.95,492.16C719.51,483.213 716.863,474.217 714.01,465.17C713.3,462.9 712.1,460.78 711.31,458.52C710.917,457.4 711.073,457.317 711.78,458.27C720.687,470.237 727.18,482.867 731.26,496.16C732.267,499.44 733.767,505.203 735.76,513.45C736.24,515.42 735.69,517.75 737.01,519.41C741.637,525.197 746.803,530.073 752.51,534.04C766.29,543.613 781.423,548.89 797.91,549.87C798.663,549.917 799.003,549.563 798.93,548.81C797.763,536.883 796.387,525.407 794.8,514.38C794.433,511.82 793.95,509.19 793.35,506.49C793.266,506.105 793.037,505.767 792.71,505.55C790.083,503.77 787.1,502.613 783.76,502.08C772.987,500.38 763.21,502.79 754.43,509.31C753.69,509.857 753.543,509.727 753.99,508.92C756.637,504.073 759.883,499.453 763.73,495.06C769.88,488.03 779.3,483.32 788.53,483.13C788.546,483.13 788.563,483.129 788.579,483.126C788.813,483.096 788.98,482.873 788.948,482.634C788.946,482.619 788.943,482.605 788.94,482.59L784.6,465.67C784.367,464.779 783.723,464.053 782.87,463.72C771.01,459.14 753.54,462.21 744.1,470.89C743.613,471.33 743.49,471.247 743.73,470.64C745.65,465.673 747.253,462.103 748.54,459.93C755.01,449.03 765.78,440.56 778.83,440.51C779.297,440.503 779.467,440.277 779.34,439.83C777.82,434.643 776.147,429.783 774.32,425.25C773.6,423.45 772.36,421.82 770.48,421.13C757.18,416.29 741.2,422.43 731.01,431.63C730.05,432.503 729.8,432.333 730.26,431.12C735.08,418.42 741.7,408.13 754.41,401.94C758.243,400.073 762.487,399.243 767.14,399.45C767.161,399.451 767.181,399.45 767.202,399.447C767.425,399.421 767.588,399.22 767.563,399.002C767.56,398.981 767.556,398.96 767.55,398.94C766.13,393.907 764.287,389.027 762.02,384.3C761.651,383.531 760.969,382.958 760.15,382.73C757.97,382.117 755.703,381.81 753.35,381.81C743.98,381.81 736.82,384.52 728.83,388.77C727.163,389.657 725.72,390.693 724.5,391.88C722.433,393.893 722.063,393.62 723.39,391.06C725.477,387.033 728.007,383.013 730.98,379C737.133,370.687 745.353,365.73 755.64,364.13C756.093,364.057 756.227,363.81 756.04,363.39L751.06,352.16C750.88,351.747 750.577,351.473 750.15,351.34C738.24,347.62 725.2,349.91 715,357.04C714.233,357.58 714.07,357.437 714.51,356.61C720.44,345.5 730.73,335.98 743.67,334.94C744.577,334.867 744.847,334.417 744.48,333.59C742.353,328.723 739.843,323.983 736.95,319.37C733.79,314.34 727.48,313.03 721.87,312.46C712.103,311.467 703.373,313.11 695.68,317.39C695.127,317.697 695.033,317.59 695.4,317.07C702.01,307.73 711.03,300.5 722.41,298.71C723.337,298.57 724.283,298.593 725.25,298.78C725.73,298.873 725.86,298.7 725.64,298.26C724.54,296.047 723.24,293.897 721.74,291.81C706.55,270.6 689.59,250.95 668.77,237.78C653.657,228.227 637.23,222.063 619.49,219.29C613.85,218.41 606.693,217.67 598.02,217.07C596.72,216.98 595.44,216.54 594.16,216.36C593.047,216.193 592.99,216.367 593.99,216.88C601.397,220.673 608.65,224.157 615.75,227.33C621.21,229.77 626.637,231.573 632.03,232.74C632.403,232.82 632.403,232.903 632.03,232.99C623.96,234.75 616.3,236.57 607.74,236.88C591.913,237.46 576.337,235.45 561.01,230.85C550.683,227.757 540.467,224.27 530.36,220.39C521.253,216.89 512.363,213.84 503.69,211.24C477.25,203.313 450.483,201.31 423.39,205.23C380.76,211.4 341.87,234.17 318.88,270.59C316.213,274.81 313.737,278.91 311.45,282.89C311.39,282.99 311.41,283.073 311.51,283.14L311.51,283.15C311.59,283.197 311.657,283.187 311.71,283.12C317.43,275.907 323.83,269.547 330.91,264.04C343.337,254.373 357.867,249.273 374.5,248.74C375.04,248.72 375.077,248.847 374.61,249.12C354.417,260.673 341.167,277.823 334.86,300.57C330.3,317.023 330.54,333.593 335.58,350.28C337.607,356.973 340.097,363.733 343.05,370.56C343.337,371.22 343.487,371.19 343.5,370.47C343.613,362.137 345.133,354.637 348.06,347.97C352.7,337.39 361.87,327.75 371.46,321.22C372.553,320.473 372.767,320.67 372.1,321.81C367.03,330.52 365.4,339.41 364.96,349.68C364.56,359 365.69,367.74 368.35,375.9C370.337,381.987 372.32,387.027 374.3,391.02C381.74,406 394.16,420.54 406.9,432.05C407.773,432.843 407.92,432.727 407.34,431.7C405.847,429.067 404.8,426.403 404.2,423.71C398.98,400.4 408.1,381.93 427.16,368.86C428.967,367.62 429.313,367.943 428.2,369.83C424.927,375.37 423.123,381.13 422.79,387.11C421.4,412.42 433.33,436.88 450.36,455.94C469.207,477.04 491.453,493.667 517.1,505.82C517.84,506.167 518.037,505.97 517.69,505.23C510.66,490.27 504.57,474.04 499.83,458.39C492.89,435.517 490.96,412.637 494.04,389.75C496.713,369.883 504.797,352.123 518.29,336.47" style="fill:none;fill-rule:nonzero;stroke:rgb(148,158,160);stroke-width:2px;"/>
        </g>
        <g transform="matrix(0.691001,0,0,0.691001,149.361,148.299)">
            <path d="M626.33,449C606.683,444.233 591.363,433.533 580.37,416.9C568.38,398.77 563.4,376.34 569.15,355.16C569.657,353.287 569.373,353.16 568.3,354.78C562.08,364.17 558.11,374.39 556.55,385.68C554.277,402.02 556.08,418.307 561.96,434.54" style="fill:none;fill-rule:nonzero;stroke:rgb(177,190,192);stroke-width:2px;"/>
        </g>
        <g transform="matrix(0.691001,0,0,0.691001,149.361,148.299)">
            <path d="M518.06,335.97C518.38,335.983 518.457,336.15 518.29,336.47" style="fill:none;fill-rule:nonzero;stroke:rgb(177,190,192);stroke-width:2px;"/>
        </g>
        <g transform="matrix(0.691001,0,0,0.691001,149.361,148.299)">
            <path d="M517.59,667.45C517.643,667.423 517.657,667.383 517.63,667.33C511.243,653.403 503.673,641.04 494.92,630.24C485.9,619.1 476.75,608.02 466.26,598.2C455.18,587.827 443.27,577.353 430.53,566.78C416.23,554.91 402.13,542.81 387.92,530.59C367.913,513.397 349.727,495.507 333.36,476.92C332.947,476.453 332.933,476.467 333.32,476.96C341.24,487.02 349.42,497.77 357.86,507.4C374.487,526.387 392.073,543.633 410.62,559.14C424.133,570.447 438.623,582.323 454.09,594.77C460.49,599.923 468.55,607.33 478.27,616.99C490.643,629.29 500.577,640.807 508.07,651.54C510.563,655.107 513.617,660.433 517.23,667.52C517.263,667.58 517.31,667.593 517.37,667.56L517.59,667.45" style="fill:none;fill-rule:nonzero;stroke:rgb(148,158,160);stroke-width:2px;"/>
        </g>
        <g transform="matrix(0.691001,0,0,0.691001,149.361,148.299)">
            <path d="M820.94,566.47C810.76,567.86 800.24,568.58 790.05,567.87C761.38,565.86 735.02,550.52 718.35,527.73C715.183,523.39 712.247,518.857 709.54,514.13C709.259,513.644 708.798,513.291 708.26,513.15C698.08,510.39 692.08,515.56 687.69,523.76C687.494,524.129 687.517,524.579 687.75,524.93C695.143,536.063 704.42,546.513 715.58,556.28C725.013,564.533 737.04,571.477 751.66,577.11C764.5,582.05 779.05,583.07 792.78,582.76C812.71,582.32 831.43,574.33 844.01,558.78C844.317,558.4 844.26,558.337 843.84,558.59C836.967,562.69 829.333,565.317 820.94,566.47" style="fill:none;fill-rule:nonzero;stroke:rgb(148,158,160);stroke-width:2px;"/>
        </g>
        <g transform="matrix(0.691001,0,0,0.691001,149.361,148.299)">
            <path d="M765.77,615.39C775.663,619.457 786.707,619.783 798.9,616.37C799.373,616.232 799.701,615.798 799.7,615.31L799.71,601.94C799.71,601.939 799.71,601.939 799.71,601.938C799.71,601.609 799.439,601.338 799.11,601.338C799.093,601.338 799.077,601.339 799.06,601.34C779.57,603.13 760.54,601.2 742.33,593.57C740.55,592.83 739.05,591.79 737.37,590.99C736.79,590.71 736.697,590.827 737.09,591.34C745.11,601.69 753.64,610.41 765.77,615.39" style="fill:none;fill-rule:nonzero;stroke:rgb(148,158,160);stroke-width:2px;"/>
        </g>
        <g transform="matrix(0.691001,0,0,0.691001,149.361,148.299)">
            <path d="M747.43,632.05C755.54,651.22 773.82,661.87 794.64,656.1C795.95,655.73 797.4,655.38 797.48,653.9C797.76,649.113 798.03,644.257 798.29,639.33C798.29,639.323 798.291,639.316 798.291,639.309C798.291,639.139 798.151,638.999 797.981,638.999C797.953,638.999 797.926,639.003 797.9,639.01C776.16,644.73 755.92,636.58 742.27,619.04C741.503,618.06 741.373,618.137 741.88,619.27C743.72,623.397 745.57,627.657 747.43,632.05" style="fill:none;fill-rule:nonzero;stroke:rgb(148,158,160);stroke-width:2px;"/>
        </g>
        <g transform="matrix(0.691001,0,0,0.691001,149.361,148.299)">
            <path d="M748.42,663.83C751.26,672.07 753.7,680.54 760.06,687.03C768.31,695.46 779.44,697.73 790.98,695.1C791.653,694.947 792.04,694.53 792.14,693.85L794.31,679.5C794.313,679.482 794.315,679.464 794.315,679.446C794.315,679.265 794.166,679.116 793.985,679.116C793.942,679.116 793.9,679.124 793.86,679.14C792.167,679.813 790.243,680.197 788.09,680.29C783.417,680.49 779.387,680.317 776,679.77C767.033,678.33 759.57,674.323 753.61,667.75C751.677,665.61 749.55,663.177 747.23,660.45C747.21,660.417 747.18,660.403 747.14,660.41C747,660.443 746.933,660.55 746.94,660.73C746.94,660.815 746.964,660.898 747.01,660.97C747.643,661.997 748.113,662.95 748.42,663.83" style="fill:none;fill-rule:nonzero;stroke:rgb(148,158,160);stroke-width:2px;"/>
        </g>
        <g transform="matrix(0.691001,0,0,0.691001,149.361,148.299)">
            <path d="M752.33,714.67C756.82,727.95 768.4,735.83 782.68,733.98C783.52,733.871 784.224,733.28 784.48,732.47L788.81,718.62C788.815,718.602 788.819,718.583 788.821,718.565C788.836,718.406 788.723,718.264 788.57,718.249C788.55,718.247 788.53,718.248 788.51,718.25C771.55,720.217 758.523,714.33 749.43,700.59C749.003,699.943 748.847,700.003 748.96,700.77C749.627,705.35 750.75,709.983 752.33,714.67" style="fill:none;fill-rule:nonzero;stroke:rgb(148,158,160);stroke-width:2px;"/>
        </g>
        <g transform="matrix(0.691001,0,0,0.691001,149.361,148.299)">
            <path d="M774.69,762.12L776.51,758.53C776.67,758.21 776.573,758.077 776.22,758.13C772.833,758.597 769.647,758.283 766.66,757.19" style="fill:none;fill-rule:nonzero;stroke:rgb(148,158,160);stroke-width:2px;"/>
        </g>
        <g transform="matrix(0.691001,0,0,0.691001,149.361,148.299)">
            <path d="M766.66,757.19C761.2,754.643 756.767,751.883 753.36,748.91C751.287,747.103 749.333,744.583 747.5,741.35C747.287,740.977 747.147,740.48 747.08,739.86C746.993,739.053 746.727,738.493 746.28,738.18C745.76,737.82 745.54,737.953 745.62,738.58C746.84,748.31 747.25,757.66 754.43,764.95C758.803,769.39 764.153,771.527 770.48,771.36C770.801,771.354 771.09,771.152 771.21,770.85L774.69,762.12" style="fill:none;fill-rule:nonzero;stroke:rgb(70,92,97);stroke-width:2px;"/>
        </g>
        <g transform="matrix(0.691001,0,0,0.691001,149.361,148.299)">
            <path d="M766.66,757.19C766.927,758.137 767.683,758.933 768.93,759.58C771.243,760.773 773.163,761.62 774.69,762.12" style="fill:none;fill-rule:nonzero;stroke:rgb(177,190,192);stroke-width:2px;"/>
        </g>
        <g transform="matrix(0.691001,0,0,0.691001,149.361,148.299)">
            <path d="M750.35,804.74C750.61,804.82 750.823,804.75 750.99,804.53L759.72,793.4C759.834,793.257 759.896,793.079 759.896,792.896C759.896,792.525 759.64,792.199 759.28,792.11C752.527,790.383 747.143,787.113 743.13,782.3C741.04,779.79 739.91,776.92 738.9,773.85C738.66,773.13 738.437,773.137 738.23,773.87C736.8,778.93 735.13,784.67 736.03,789.87C737.31,797.29 742.083,802.247 750.35,804.74" style="fill:none;fill-rule:nonzero;stroke:rgb(70,92,97);stroke-width:2px;"/>
        </g>
        <g transform="matrix(0.691001,0,0,0.691001,149.361,148.299)">
            <path d="M735.2,821.9C729.34,818.94 725.827,813.88 724.66,806.72C724.42,805.253 723.857,805.117 722.97,806.31C721.297,808.557 719.63,810.937 717.97,813.45C713.19,820.69 718.64,827.68 724.83,831.24C725.252,831.482 725.785,831.447 726.18,831.15C729.587,828.543 732.647,825.737 735.36,822.73C735.448,822.633 735.496,822.506 735.496,822.376C735.496,822.174 735.381,821.989 735.2,821.9" style="fill:none;fill-rule:nonzero;stroke:rgb(70,92,97);stroke-width:2px;"/>
        </g>
        <g transform="matrix(0.691001,0,0,0.691001,149.361,148.299)">
            <path d="M629.41,353.37C628.603,356.137 628.66,358.853 629.58,361.52C632.75,370.69 639.88,376.68 649.42,376.55C653.65,376.49 657.7,376.11 661.71,377.39C675.13,381.65 681.7,397.05 683.71,409.99C684.077,412.317 684.597,412.353 685.27,410.1C689.87,394.733 690.673,379.33 687.68,363.89C685.06,350.35 678.06,337.32 665.73,331.02C655.71,325.9 641.3,326.89 631.08,331.33C618.56,336.78 608.58,345.77 599.93,356.49C599.263,357.317 599.437,357.58 600.45,357.28C609.95,354.46 618.94,352.54 628.92,352.7C629.373,352.713 629.537,352.937 629.41,353.37" style="fill:none;fill-rule:nonzero;stroke:rgb(148,158,160);stroke-width:2px;"/>
        </g>
        <g transform="matrix(0.691001,0,0,0.691001,149.361,148.299)">
            <path d="M646.864,360.61C649.98,360.353 652.322,357.43 652.051,354.133C651.78,350.836 648.992,348.334 645.876,348.59C642.76,348.847 640.418,351.77 640.689,355.067C640.96,358.364 643.748,360.866 646.864,360.61" style="fill:none;fill-rule:nonzero;stroke:rgb(148,158,160);stroke-width:2px;"/>
        </g>
        <g transform="matrix(0.691001,0,0,0.691001,149.361,148.299)">
            <path d="M439.49,691.44C440.94,693.05 442.73,694.69 443.99,696.39C448.33,702.21 453.23,707.63 457.4,713.51C460.787,718.297 464.123,723.307 467.41,728.54C467.457,728.62 467.523,728.637 467.61,728.59L467.62,728.59C467.7,728.537 467.72,728.467 467.68,728.38C460.447,714.387 451.067,702.057 439.54,691.39C439.147,691.023 439.13,691.04 439.49,691.44" style="fill:none;fill-rule:nonzero;stroke:rgb(154,196,128);stroke-width:2px;"/>
        </g>
    </g>
    <g transform="matrix(0.691001,0,0,0.691001,-112.639,-113.701)">
        <path d="M303.02,313.09C302.58,314.243 302.203,315.41 301.89,316.59C298.87,328.11 297.56,340.387 297.96,353.42C298.18,360.58 298.957,367.223 300.29,373.35C305.23,396.023 314.803,416.56 329.01,434.96C352.17,464.94 381.98,489.55 411.3,514.04C416.82,518.647 422.063,522.89 427.03,526.77C444.403,540.343 460.807,553.897 476.24,567.43C484.3,574.497 492.58,582.437 501.08,591.25C520.98,611.89 536.53,637.46 545.51,665.21C555.257,695.31 556.37,725.74 548.85,756.5C547.317,762.787 544.797,770.23 541.29,778.83C539.28,783.73 536.65,788.17 534.45,793.01C533.51,795.07 533.167,794.977 533.42,792.73C535.43,774.91 535.65,758.55 532.48,741.47C527.05,712.18 512.73,684.37 493.45,661.7C488.49,655.86 482.52,650.04 476.98,644.47C471.413,638.877 465.287,633.52 458.6,628.4C435.06,610.38 410.3,593.22 385.69,575.32C356.977,554.447 331.517,530.85 309.31,504.53C296.42,489.25 285.18,472.56 275.38,455.06C267.613,441.167 261.343,426.657 256.57,411.53C243.45,369.95 244.757,329.06 260.49,288.86C270.45,263.41 285.9,241.7 304.95,222.48C309.79,217.593 314.74,213.187 319.8,209.26C339.133,194.24 360.533,183.057 384,175.71C387.167,174.723 392.27,173.363 399.31,171.63C431.8,163.66 466.59,163.25 499.75,171.44C515.603,175.347 531.27,180.437 546.75,186.71C551.497,188.63 556.037,190.417 560.37,192.07C561.65,192.56 562.9,192.64 564.25,192.49C577.71,190.943 589.957,190.26 600.99,190.44C645.323,191.167 682.53,207.2 712.61,238.54C719.86,246.1 727.27,254.77 733.45,263.73C744.803,280.177 754.387,296.98 762.2,314.14C780.98,355.34 794.22,397.98 805.38,443.47C811.92,470.143 816.877,495.073 820.25,518.26C821.563,527.287 822.567,536.967 823.26,547.3C823.282,547.645 823.572,547.918 823.919,547.918C823.953,547.918 823.986,547.915 824.02,547.91C837.74,545.8 848.8,540.33 859.14,531.62C864.81,526.84 871.03,530.43 872.32,536.9C872.613,538.373 872.387,539.953 871.64,541.64C866.66,552.98 861.63,564.2 853.58,573.32C847.187,580.567 838.833,587.177 828.52,593.15C827.36,593.82 825.9,594.12 824.87,594.89C824.593,595.098 824.433,595.422 824.44,595.76C824.467,606.607 824.347,616.747 824.08,626.18C823.18,657.947 819.537,688.907 813.15,719.06C807.82,744.21 799.57,768.12 787.16,791.23C770.08,823.02 746.19,848.19 713.27,862.38C697.43,869.21 679.49,871.56 662.59,870.51C639.87,869.11 619.64,859.71 604.85,842.6C587.92,823.01 581.79,797.43 588.4,772.27C594.29,749.86 613.55,732.09 636.99,729.97C652.03,728.61 664.2,733.593 673.5,744.92C677.233,749.473 679.357,754.55 679.87,760.15C680.64,768.56 676.49,777.96 667.94,780.84C660.59,783.31 653.47,779.08 651.41,771.52C650.43,767.93 644.21,767.73 641.54,768.76C638.247,770.04 635.857,772.193 634.37,775.22C630.523,783.04 630.657,790.803 634.77,798.51C640.8,809.81 654.38,814.85 666.53,813.66C689.98,811.35 703.99,793.73 711.93,772.88C716.23,761.593 719.1,749.6 720.54,736.9C723.467,711.16 723.097,684.347 719.43,656.46C717.777,643.88 715.783,631.613 713.45,619.66C710.93,606.753 706.557,591.077 700.33,572.63C699.703,570.783 698.647,569.007 697.16,567.3C691.473,560.76 686.433,554.913 682.04,549.76C680.78,548.28 679.687,546.79 678.76,545.29C678.513,544.89 678.227,544.86 677.9,545.2L676.7,546.45C676.446,546.717 676.119,546.905 675.76,546.99C669.23,548.53 667.73,545.51 663.6,540.45C655.967,531.083 649.233,521.107 643.4,510.52C643.227,510.207 642.96,510.057 642.6,510.07C637.967,510.29 634.227,510.69 631.38,511.27C603.42,516.92 588.24,538.12 587.35,565.65C586.82,582.1 590.06,598.95 592.13,615.71C594.93,638.33 594.51,661.88 588.72,683.34C586.573,691.293 583.673,699.713 580.02,708.6C578.78,711.62 577.327,714.417 575.66,716.99C574.82,718.29 574.567,718.187 574.9,716.68C575.24,715.14 575.67,713.66 575.7,712.07C575.933,698.643 575.857,690.34 575.47,687.16C572.257,660.793 563.933,636.313 550.5,613.72C541.347,598.327 530.27,583.927 517.27,570.52C500.717,553.46 482.737,537.25 463.33,521.89C445.86,508.07 428.36,493.76 411.37,479.87C394.23,465.863 378.02,451.017 362.74,435.33C354.507,426.877 346.8,418.117 339.62,409.05C324.947,390.523 314.32,370.81 307.74,349.91C304.9,340.883 303.233,330.05 302.74,317.41C302.707,316.61 302.74,315.82 302.84,315.04C302.92,314.4 303.013,313.76 303.12,313.12C303.173,312.793 303.14,312.783 303.02,313.09ZM518.29,336.47C519.443,335.743 520.347,334.827 521,333.72C521.187,333.4 521.113,333.323 520.78,333.49C519.72,334.023 518.813,334.85 518.06,335.97C507.9,343.97 500.063,351.83 494.55,359.55C479.77,380.26 472.51,404.86 475.47,430.23C476.37,437.91 477.75,445.7 480.45,452.98C480.95,454.333 480.68,454.513 479.64,453.52C476.753,450.793 474.303,447.873 472.29,444.76C461.943,428.78 457.033,411.807 457.56,393.84C458.12,374.867 463.843,357.977 474.73,343.17C484.883,329.35 497.897,318.86 513.77,311.7C516.42,310.5 519.08,309.95 521.84,309.16C523.033,308.82 523.01,308.623 521.77,308.57C514.62,308.27 507.46,306.71 500.32,306.45C480.92,305.743 462.963,309.667 446.45,318.22C435.16,324.07 425.64,332.45 417.21,342.06C413.737,346.02 410.703,350.49 408.11,355.47C407.523,356.603 407.317,356.54 407.49,355.28C409.503,340.267 414.797,327.047 423.37,315.62C432.037,304.08 442.023,295.42 453.33,289.64C466.35,282.98 479.857,279.423 493.85,278.97C494.263,278.957 494.303,278.827 493.97,278.58C481.79,269.627 468.79,263.853 454.97,261.26C429.38,256.44 400.48,261.94 378.59,278.12C378.163,278.433 377.703,278.693 377.21,278.9C376.363,279.253 376.227,279.073 376.8,278.36C396.873,253.253 422.877,239.22 454.81,236.26C470.73,234.79 488.05,237.39 503.14,241.44C513.63,244.26 524.47,248.41 534.87,252.2C556.95,260.26 581.37,263.71 604.73,259.22C613.437,257.547 620.847,255.583 626.96,253.33C633.207,251.03 639.187,248.853 644.9,246.8C646.58,246.2 646.657,246.363 645.13,247.29C632.697,254.877 621.097,263.967 610.33,274.56C599.78,284.95 591.33,297.95 582.96,311.06C577.92,318.94 571.97,326.83 566.33,334.28C552.03,353.16 547.69,374.15 550.06,397.25C551.393,410.277 555.36,422.707 561.96,434.54C570.207,450.92 582.94,463.283 600.16,471.63C609.553,476.177 619.72,479.233 630.66,480.8C630.684,480.803 630.709,480.805 630.733,480.804C630.969,480.796 631.156,480.59 631.148,480.349C631.147,480.326 631.144,480.303 631.14,480.28C628.927,469.573 627.323,459.147 626.33,449C624.303,431.487 617.647,416.503 606.36,404.05C606.35,404.04 606.342,404.029 606.334,404.018C606.242,403.888 606.277,403.703 606.411,403.608C606.42,403.602 606.43,403.596 606.44,403.59C606.687,403.457 606.94,403.437 607.2,403.53C611.42,405 615.77,405.91 619.87,407.82C632.65,413.8 643.59,424.64 647.74,438.06C649.72,444.487 650.977,450.917 651.51,457.35C651.857,461.517 652.277,465.553 652.77,469.46C654.717,484.847 660.07,499.117 668.83,512.27C668.863,512.321 668.904,512.366 668.95,512.405C669.208,512.618 669.599,512.578 669.815,512.316C669.854,512.269 669.886,512.216 669.91,512.16C678.55,491.44 703.75,486.05 722.07,496.17C722.41,496.357 722.57,496.257 722.55,495.87C722.483,494.603 722.283,493.367 721.95,492.16C719.51,483.213 716.863,474.217 714.01,465.17C713.3,462.9 712.1,460.78 711.31,458.52C710.917,457.4 711.073,457.317 711.78,458.27C720.687,470.237 727.18,482.867 731.26,496.16C732.267,499.44 733.767,505.203 735.76,513.45C736.24,515.42 735.69,517.75 737.01,519.41C741.637,525.197 746.803,530.073 752.51,534.04C766.29,543.613 781.423,548.89 797.91,549.87C798.663,549.917 799.003,549.563 798.93,548.81C797.763,536.883 796.387,525.407 794.8,514.38C794.433,511.82 793.95,509.19 793.35,506.49C793.266,506.105 793.037,505.767 792.71,505.55C790.083,503.77 787.1,502.613 783.76,502.08C772.987,500.38 763.21,502.79 754.43,509.31C753.69,509.857 753.543,509.727 753.99,508.92C756.637,504.073 759.883,499.453 763.73,495.06C769.88,488.03 779.3,483.32 788.53,483.13C788.546,483.13 788.563,483.129 788.579,483.126C788.813,483.096 788.98,482.873 788.948,482.634C788.946,482.619 788.943,482.605 788.94,482.59L784.6,465.67C784.367,464.779 783.723,464.053 782.87,463.72C771.01,459.14 753.54,462.21 744.1,470.89C743.613,471.33 743.49,471.247 743.73,470.64C745.65,465.673 747.253,462.103 748.54,459.93C755.01,449.03 765.78,440.56 778.83,440.51C779.297,440.503 779.467,440.277 779.34,439.83C777.82,434.643 776.147,429.783 774.32,425.25C773.6,423.45 772.36,421.82 770.48,421.13C757.18,416.29 741.2,422.43 731.01,431.63C730.05,432.503 729.8,432.333 730.26,431.12C735.08,418.42 741.7,408.13 754.41,401.94C758.243,400.073 762.487,399.243 767.14,399.45C767.161,399.451 767.181,399.45 767.202,399.447C767.425,399.421 767.588,399.22 767.563,399.002C767.56,398.981 767.556,398.96 767.55,398.94C766.13,393.907 764.287,389.027 762.02,384.3C761.651,383.531 760.969,382.958 760.15,382.73C757.97,382.117 755.703,381.81 753.35,381.81C743.98,381.81 736.82,384.52 728.83,388.77C727.163,389.657 725.72,390.693 724.5,391.88C722.433,393.893 722.063,393.62 723.39,391.06C725.477,387.033 728.007,383.013 730.98,379C737.133,370.687 745.353,365.73 755.64,364.13C756.093,364.057 756.227,363.81 756.04,363.39L751.06,352.16C750.88,351.747 750.577,351.473 750.15,351.34C738.24,347.62 725.2,349.91 715,357.04C714.233,357.58 714.07,357.437 714.51,356.61C720.44,345.5 730.73,335.98 743.67,334.94C744.577,334.867 744.847,334.417 744.48,333.59C742.353,328.723 739.843,323.983 736.95,319.37C733.79,314.34 727.48,313.03 721.87,312.46C712.103,311.467 703.373,313.11 695.68,317.39C695.127,317.697 695.033,317.59 695.4,317.07C702.01,307.73 711.03,300.5 722.41,298.71C723.337,298.57 724.283,298.593 725.25,298.78C725.73,298.873 725.86,298.7 725.64,298.26C724.54,296.047 723.24,293.897 721.74,291.81C706.55,270.6 689.59,250.95 668.77,237.78C653.657,228.227 637.23,222.063 619.49,219.29C613.85,218.41 606.693,217.67 598.02,217.07C596.72,216.98 595.44,216.54 594.16,216.36C593.047,216.193 592.99,216.367 593.99,216.88C601.397,220.673 608.65,224.157 615.75,227.33C621.21,229.77 626.637,231.573 632.03,232.74C632.403,232.82 632.403,232.903 632.03,232.99C623.96,234.75 616.3,236.57 607.74,236.88C591.913,237.46 576.337,235.45 561.01,230.85C550.683,227.757 540.467,224.27 530.36,220.39C521.253,216.89 512.363,213.84 503.69,211.24C477.25,203.313 450.483,201.31 423.39,205.23C380.76,211.4 341.87,234.17 318.88,270.59C316.213,274.81 313.737,278.91 311.45,282.89C311.39,282.99 311.41,283.073 311.51,283.14L311.51,283.15C311.59,283.197 311.657,283.187 311.71,283.12C317.43,275.907 323.83,269.547 330.91,264.04C343.337,254.373 357.867,249.273 374.5,248.74C375.04,248.72 375.077,248.847 374.61,249.12C354.417,260.673 341.167,277.823 334.86,300.57C330.3,317.023 330.54,333.593 335.58,350.28C337.607,356.973 340.097,363.733 343.05,370.56C343.337,371.22 343.487,371.19 343.5,370.47C343.613,362.137 345.133,354.637 348.06,347.97C352.7,337.39 361.87,327.75 371.46,321.22C372.553,320.473 372.767,320.67 372.1,321.81C367.03,330.52 365.4,339.41 364.96,349.68C364.56,359 365.69,367.74 368.35,375.9C370.337,381.987 372.32,387.027 374.3,391.02C381.74,406 394.16,420.54 406.9,432.05C407.773,432.843 407.92,432.727 407.34,431.7C405.847,429.067 404.8,426.403 404.2,423.71C398.98,400.4 408.1,381.93 427.16,368.86C428.967,367.62 429.313,367.943 428.2,369.83C424.927,375.37 423.123,381.13 422.79,387.11C421.4,412.42 433.33,436.88 450.36,455.94C469.207,477.04 491.453,493.667 517.1,505.82C517.84,506.167 518.037,505.97 517.69,505.23C510.66,490.27 504.57,474.04 499.83,458.39C492.89,435.517 490.96,412.637 494.04,389.75C496.713,369.883 504.797,352.123 518.29,336.47ZM517.59,667.45C517.643,667.423 517.657,667.383 517.63,667.33C511.243,653.403 503.673,641.04 494.92,630.24C485.9,619.1 476.75,608.02 466.26,598.2C455.18,587.827 443.27,577.353 430.53,566.78C416.23,554.91 402.13,542.81 387.92,530.59C367.913,513.397 349.727,495.507 333.36,476.92C332.947,476.453 332.933,476.467 333.32,476.96C341.24,487.02 349.42,497.77 357.86,507.4C374.487,526.387 392.073,543.633 410.62,559.14C424.133,570.447 438.623,582.323 454.09,594.77C460.49,599.923 468.55,607.33 478.27,616.99C490.643,629.29 500.577,640.807 508.07,651.54C510.563,655.107 513.617,660.433 517.23,667.52C517.263,667.58 517.31,667.593 517.37,667.56L517.59,667.45ZM820.94,566.47C810.76,567.86 800.24,568.58 790.05,567.87C761.38,565.86 735.02,550.52 718.35,527.73C715.183,523.39 712.247,518.857 709.54,514.13C709.259,513.644 708.798,513.291 708.26,513.15C698.08,510.39 692.08,515.56 687.69,523.76C687.494,524.129 687.517,524.579 687.75,524.93C695.143,536.063 704.42,546.513 715.58,556.28C725.013,564.533 737.04,571.477 751.66,577.11C764.5,582.05 779.05,583.07 792.78,582.76C812.71,582.32 831.43,574.33 844.01,558.78C844.317,558.4 844.26,558.337 843.84,558.59C836.967,562.69 829.333,565.317 820.94,566.47ZM765.77,615.39C775.663,619.457 786.707,619.783 798.9,616.37C799.373,616.232 799.701,615.798 799.7,615.31L799.71,601.94C799.71,601.939 799.71,601.939 799.71,601.938C799.71,601.609 799.439,601.338 799.11,601.338C799.093,601.338 799.077,601.339 799.06,601.34C779.57,603.13 760.54,601.2 742.33,593.57C740.55,592.83 739.05,591.79 737.37,590.99C736.79,590.71 736.697,590.827 737.09,591.34C745.11,601.69 753.64,610.41 765.77,615.39ZM747.43,632.05C755.54,651.22 773.82,661.87 794.64,656.1C795.95,655.73 797.4,655.38 797.48,653.9C797.76,649.113 798.03,644.257 798.29,639.33C798.29,639.323 798.291,639.316 798.291,639.309C798.291,639.139 798.151,638.999 797.981,638.999C797.953,638.999 797.926,639.003 797.9,639.01C776.16,644.73 755.92,636.58 742.27,619.04C741.503,618.06 741.373,618.137 741.88,619.27C743.72,623.397 745.57,627.657 747.43,632.05ZM748.42,663.83C751.26,672.07 753.7,680.54 760.06,687.03C768.31,695.46 779.44,697.73 790.98,695.1C791.653,694.947 792.04,694.53 792.14,693.85L794.31,679.5C794.313,679.482 794.315,679.464 794.315,679.446C794.315,679.265 794.166,679.116 793.985,679.116C793.942,679.116 793.9,679.124 793.86,679.14C792.167,679.813 790.243,680.197 788.09,680.29C783.417,680.49 779.387,680.317 776,679.77C767.033,678.33 759.57,674.323 753.61,667.75C751.677,665.61 749.55,663.177 747.23,660.45C747.21,660.417 747.18,660.403 747.14,660.41C747,660.443 746.933,660.55 746.94,660.73C746.94,660.815 746.964,660.898 747.01,660.97C747.643,661.997 748.113,662.95 748.42,663.83ZM752.33,714.67C756.82,727.95 768.4,735.83 782.68,733.98C783.52,733.871 784.224,733.28 784.48,732.47L788.81,718.62C788.815,718.602 788.819,718.583 788.821,718.565C788.836,718.406 788.723,718.264 788.57,718.249C788.55,718.247 788.53,718.248 788.51,718.25C771.55,720.217 758.523,714.33 749.43,700.59C749.003,699.943 748.847,700.003 748.96,700.77C749.627,705.35 750.75,709.983 752.33,714.67ZM774.69,762.12L776.51,758.53C776.67,758.21 776.573,758.077 776.22,758.13C772.833,758.597 769.647,758.283 766.66,757.19C761.2,754.643 756.767,751.883 753.36,748.91C751.287,747.103 749.333,744.583 747.5,741.35C747.287,740.977 747.147,740.48 747.08,739.86C746.993,739.053 746.727,738.493 746.28,738.18C745.76,737.82 745.54,737.953 745.62,738.58C746.84,748.31 747.25,757.66 754.43,764.95C758.803,769.39 764.153,771.527 770.48,771.36C770.801,771.354 771.09,771.152 771.21,770.85L774.69,762.12ZM750.35,804.74C750.61,804.82 750.823,804.75 750.99,804.53L759.72,793.4C759.834,793.257 759.896,793.079 759.896,792.896C759.896,792.525 759.64,792.199 759.28,792.11C752.527,790.383 747.143,787.113 743.13,782.3C741.04,779.79 739.91,776.92 738.9,773.85C738.66,773.13 738.437,773.137 738.23,773.87C736.8,778.93 735.13,784.67 736.03,789.87C737.31,797.29 742.083,802.247 750.35,804.74ZM735.2,821.9C729.34,818.94 725.827,813.88 724.66,806.72C724.42,805.253 723.857,805.117 722.97,806.31C721.297,808.557 719.63,810.937 717.97,813.45C713.19,820.69 718.64,827.68 724.83,831.24C725.252,831.482 725.785,831.447 726.18,831.15C729.587,828.543 732.647,825.737 735.36,822.73C735.448,822.633 735.496,822.506 735.496,822.376C735.496,822.174 735.381,821.989 735.2,821.9Z" style="fill:rgb(40,60,65);fill-rule:nonzero;"/>
    </g>
    <g transform="matrix(0.691001,0,0,0.691001,-112.639,-113.701)">
        <path d="M626.33,449C606.683,444.233 591.363,433.533 580.37,416.9C568.38,398.77 563.4,376.34 569.15,355.16C569.657,353.287 569.373,353.16 568.3,354.78C562.08,364.17 558.11,374.39 556.55,385.68C554.277,402.02 556.08,418.307 561.96,434.54C555.36,422.707 551.393,410.277 550.06,397.25C547.69,374.15 552.03,353.16 566.33,334.28C571.97,326.83 577.92,318.94 582.96,311.06C591.33,297.95 599.78,284.95 610.33,274.56C621.097,263.967 632.697,254.877 645.13,247.29C646.657,246.363 646.58,246.2 644.9,246.8C639.187,248.853 633.207,251.03 626.96,253.33C620.847,255.583 613.437,257.547 604.73,259.22C581.37,263.71 556.95,260.26 534.87,252.2C524.47,248.41 513.63,244.26 503.14,241.44C488.05,237.39 470.73,234.79 454.81,236.26C422.877,239.22 396.873,253.253 376.8,278.36C376.227,279.073 376.363,279.253 377.21,278.9C377.703,278.693 378.163,278.433 378.59,278.12C400.48,261.94 429.38,256.44 454.97,261.26C468.79,263.853 481.79,269.627 493.97,278.58C494.303,278.827 494.263,278.957 493.85,278.97C479.857,279.423 466.35,282.98 453.33,289.64C442.023,295.42 432.037,304.08 423.37,315.62C414.797,327.047 409.503,340.267 407.49,355.28C407.317,356.54 407.523,356.603 408.11,355.47C410.703,350.49 413.737,346.02 417.21,342.06C425.64,332.45 435.16,324.07 446.45,318.22C462.963,309.667 480.92,305.743 500.32,306.45C507.46,306.71 514.62,308.27 521.77,308.57C523.01,308.623 523.033,308.82 521.84,309.16C519.08,309.95 516.42,310.5 513.77,311.7C497.897,318.86 484.883,329.35 474.73,343.17C463.843,357.977 458.12,374.867 457.56,393.84C457.033,411.807 461.943,428.78 472.29,444.76C474.303,447.873 476.753,450.793 479.64,453.52C480.68,454.513 480.95,454.333 480.45,452.98C477.75,445.7 476.37,437.91 475.47,430.23C472.51,404.86 479.77,380.26 494.55,359.55C500.063,351.83 507.9,343.97 518.06,335.97C518.38,335.983 518.457,336.15 518.29,336.47C504.797,352.123 496.713,369.883 494.04,389.75C490.96,412.637 492.89,435.517 499.83,458.39C504.57,474.04 510.66,490.27 517.69,505.23C518.037,505.97 517.84,506.167 517.1,505.82C491.453,493.667 469.207,477.04 450.36,455.94C433.33,436.88 421.4,412.42 422.79,387.11C423.123,381.13 424.927,375.37 428.2,369.83C429.313,367.943 428.967,367.62 427.16,368.86C408.1,381.93 398.98,400.4 404.2,423.71C404.8,426.403 405.847,429.067 407.34,431.7C407.92,432.727 407.773,432.843 406.9,432.05C394.16,420.54 381.74,406 374.3,391.02C372.32,387.027 370.337,381.987 368.35,375.9C365.69,367.74 364.56,359 364.96,349.68C365.4,339.41 367.03,330.52 372.1,321.81C372.767,320.67 372.553,320.473 371.46,321.22C361.87,327.75 352.7,337.39 348.06,347.97C345.133,354.637 343.613,362.137 343.5,370.47C343.487,371.19 343.337,371.22 343.05,370.56C340.097,363.733 337.607,356.973 335.58,350.28C330.54,333.593 330.3,317.023 334.86,300.57C341.167,277.823 354.417,260.673 374.61,249.12C375.077,248.847 375.04,248.72 374.5,248.74C357.867,249.273 343.337,254.373 330.91,264.04C323.83,269.547 317.43,275.907 311.71,283.12C311.657,283.187 311.59,283.197 311.51,283.15L311.51,283.14C311.41,283.073 311.39,282.99 311.45,282.89C313.737,278.91 316.213,274.81 318.88,270.59C341.87,234.17 380.76,211.4 423.39,205.23C450.483,201.31 477.25,203.313 503.69,211.24C512.363,213.84 521.253,216.89 530.36,220.39C540.467,224.27 550.683,227.757 561.01,230.85C576.337,235.45 591.913,237.46 607.74,236.88C616.3,236.57 623.96,234.75 632.03,232.99C632.403,232.903 632.403,232.82 632.03,232.74C626.637,231.573 621.21,229.77 615.75,227.33C608.65,224.157 601.397,220.673 593.99,216.88C592.99,216.367 593.047,216.193 594.16,216.36C595.44,216.54 596.72,216.98 598.02,217.07C606.693,217.67 613.85,218.41 619.49,219.29C637.23,222.063 653.657,228.227 668.77,237.78C689.59,250.95 706.55,270.6 721.74,291.81C723.24,293.897 724.54,296.047 725.64,298.26C725.86,298.7 725.73,298.873 725.25,298.78C724.283,298.593 723.337,298.57 722.41,298.71C711.03,300.5 702.01,307.73 695.4,317.07C695.033,317.59 695.127,317.697 695.68,317.39C703.373,313.11 712.103,311.467 721.87,312.46C727.48,313.03 733.79,314.34 736.95,319.37C739.843,323.983 742.353,328.723 744.48,333.59C744.847,334.417 744.577,334.867 743.67,334.94C730.73,335.98 720.44,345.5 714.51,356.61C714.07,357.437 714.233,357.58 715,357.04C725.2,349.91 738.24,347.62 750.15,351.34C750.577,351.473 750.88,351.747 751.06,352.16L756.04,363.39C756.227,363.81 756.093,364.057 755.64,364.13C745.353,365.73 737.133,370.687 730.98,379C728.007,383.013 725.477,387.033 723.39,391.06C722.063,393.62 722.433,393.893 724.5,391.88C725.72,390.693 727.163,389.657 728.83,388.77C736.82,384.52 743.98,381.81 753.35,381.81C755.703,381.81 757.97,382.117 760.15,382.73C760.969,382.958 761.651,383.531 762.02,384.3C764.287,389.027 766.13,393.907 767.55,398.94C767.556,398.96 767.56,398.981 767.563,399.002C767.588,399.22 767.425,399.421 767.202,399.447C767.181,399.45 767.161,399.451 767.14,399.45C762.487,399.243 758.243,400.073 754.41,401.94C741.7,408.13 735.08,418.42 730.26,431.12C729.8,432.333 730.05,432.503 731.01,431.63C741.2,422.43 757.18,416.29 770.48,421.13C772.36,421.82 773.6,423.45 774.32,425.25C776.147,429.783 777.82,434.643 779.34,439.83C779.467,440.277 779.297,440.503 778.83,440.51C765.78,440.56 755.01,449.03 748.54,459.93C747.253,462.103 745.65,465.673 743.73,470.64C743.49,471.247 743.613,471.33 744.1,470.89C753.54,462.21 771.01,459.14 782.87,463.72C783.723,464.053 784.367,464.779 784.6,465.67L788.94,482.59C788.943,482.605 788.946,482.619 788.948,482.634C788.98,482.873 788.813,483.096 788.579,483.126C788.563,483.129 788.546,483.13 788.53,483.13C779.3,483.32 769.88,488.03 763.73,495.06C759.883,499.453 756.637,504.073 753.99,508.92C753.543,509.727 753.69,509.857 754.43,509.31C763.21,502.79 772.987,500.38 783.76,502.08C787.1,502.613 790.083,503.77 792.71,505.55C793.037,505.767 793.266,506.105 793.35,506.49C793.95,509.19 794.433,511.82 794.8,514.38C796.387,525.407 797.763,536.883 798.93,548.81C799.003,549.563 798.663,549.917 797.91,549.87C781.423,548.89 766.29,543.613 752.51,534.04C746.803,530.073 741.637,525.197 737.01,519.41C735.69,517.75 736.24,515.42 735.76,513.45C733.767,505.203 732.267,499.44 731.26,496.16C727.18,482.867 720.687,470.237 711.78,458.27C711.073,457.317 710.917,457.4 711.31,458.52C712.1,460.78 713.3,462.9 714.01,465.17C716.863,474.217 719.51,483.213 721.95,492.16C722.283,493.367 722.483,494.603 722.55,495.87C722.57,496.257 722.41,496.357 722.07,496.17C703.75,486.05 678.55,491.44 669.91,512.16C669.886,512.216 669.854,512.269 669.815,512.316C669.599,512.578 669.208,512.618 668.95,512.405C668.904,512.366 668.863,512.321 668.83,512.27C660.07,499.117 654.717,484.847 652.77,469.46C652.277,465.553 651.857,461.517 651.51,457.35C650.977,450.917 649.72,444.487 647.74,438.06C643.59,424.64 632.65,413.8 619.87,407.82C615.77,405.91 611.42,405 607.2,403.53C606.94,403.437 606.687,403.457 606.44,403.59C606.43,403.596 606.42,403.602 606.411,403.608C606.277,403.703 606.242,403.888 606.334,404.018C606.342,404.029 606.35,404.04 606.36,404.05C617.647,416.503 624.303,431.487 626.33,449ZM629.41,353.37C628.603,356.137 628.66,358.853 629.58,361.52C632.75,370.69 639.88,376.68 649.42,376.55C653.65,376.49 657.7,376.11 661.71,377.39C675.13,381.65 681.7,397.05 683.71,409.99C684.077,412.317 684.597,412.353 685.27,410.1C689.87,394.733 690.673,379.33 687.68,363.89C685.06,350.35 678.06,337.32 665.73,331.02C655.71,325.9 641.3,326.89 631.08,331.33C618.56,336.78 608.58,345.77 599.93,356.49C599.263,357.317 599.437,357.58 600.45,357.28C609.95,354.46 618.94,352.54 628.92,352.7C629.373,352.713 629.537,352.937 629.41,353.37Z" style="fill:white;fill-rule:nonzero;"/>
    </g>
    <g transform="matrix(0.691001,0,0,0.691001,-112.639,-113.701)">
        <path d="M628.92,352.7C618.94,352.54 609.95,354.46 600.45,357.28C599.437,357.58 599.263,357.317 599.93,356.49C608.58,345.77 618.56,336.78 631.08,331.33C641.3,326.89 655.71,325.9 665.73,331.02C678.06,337.32 685.06,350.35 687.68,363.89C690.673,379.33 689.87,394.733 685.27,410.1C684.597,412.353 684.077,412.317 683.71,409.99C681.7,397.05 675.13,381.65 661.71,377.39C657.7,376.11 653.65,376.49 649.42,376.55C639.88,376.68 632.75,370.69 629.58,361.52C628.66,358.853 628.603,356.137 629.41,353.37C629.537,352.937 629.373,352.713 628.92,352.7ZM646.864,360.61C649.98,360.353 652.322,357.43 652.051,354.133C651.78,350.836 648.992,348.334 645.876,348.59C642.76,348.847 640.418,351.77 640.689,355.067C640.96,358.364 643.748,360.866 646.864,360.61Z" style="fill:rgb(40,60,65);fill-rule:nonzero;"/>
    </g>
    <g transform="matrix(0.691001,0,0,0.691001,-112.639,-113.701)">
        <path d="M518.29,336.47C518.457,336.15 518.38,335.983 518.06,335.97C518.813,334.85 519.72,334.023 520.78,333.49C521.113,333.323 521.187,333.4 521,333.72C520.347,334.827 519.443,335.743 518.29,336.47Z" style="fill:rgb(99,124,129);fill-rule:nonzero;"/>
    </g>
    <g transform="matrix(0.0566196,0.688678,-0.688678,0.0566196,334.004,131.328)">
        <ellipse cx="0" cy="0" rx="6.03" ry="5.7" style="fill:white;"/>
    </g>
    <g transform="matrix(0.691001,0,0,0.691001,-112.639,-113.701)">
        <path d="M379.53,603.98L381.69,607.5C381.863,607.78 382.113,607.907 382.44,607.88C382.713,607.853 382.983,607.903 383.25,608.03C383.397,608.097 383.437,608.207 383.37,608.36C383.323,608.46 383.253,608.523 383.16,608.55C382.56,608.703 382.493,608.987 382.96,609.4C383.033,609.46 383.047,609.533 383,609.62C382.873,609.88 382.677,609.963 382.41,609.87C382.077,609.75 381.88,609.843 381.82,610.15C381.787,610.35 381.69,610.513 381.53,610.64C381.403,610.74 381.297,610.763 381.21,610.71C380.93,610.537 380.723,610.603 380.59,610.91C379.717,612.957 378.507,614.69 376.96,616.11C376.72,616.33 376.543,616.597 376.43,616.91C375.87,618.42 374.55,618.94 373.89,620.31C373.69,620.717 373.36,621.007 372.9,621.18C372.62,621.287 372.42,621.477 372.3,621.75C371.947,622.563 371.333,623.073 370.46,623.28C369.133,623.6 368.073,624.727 367.28,626.66C367.225,626.8 367.256,626.961 367.36,627.07C367.527,627.237 367.523,627.453 367.35,627.72C367.245,627.886 367.038,627.963 366.84,627.91C365.307,627.47 364.14,626.667 363.34,625.5C362.433,624.187 361.483,623.95 360.49,624.79C346.71,613.8 332.58,603.37 319.59,591.42C308.617,581.32 297.887,570.963 287.4,560.35C284.193,557.11 277.317,548.92 266.77,535.78C263.97,532.527 261.523,528.947 259.43,525.04C255.79,518.247 252.197,511.68 248.65,505.34C246.683,501.82 244.87,498.217 243.21,494.53C241.483,490.697 239.727,487.07 237.94,483.65C235.233,478.443 232.57,473.12 229.95,467.68C229.79,467.347 229.527,467.167 229.16,467.14C228.827,467.12 228.553,466.98 228.34,466.72C227.993,466.287 227.597,466.237 227.15,466.57C226.43,467.117 225.563,467.41 224.55,467.45C224.297,467.457 224.123,467.347 224.03,467.12C223.483,465.767 223.077,465.813 222.81,467.26C222.77,467.48 222.71,468.05 222.63,468.97C214.96,438.08 213.77,406 217.49,374.47C218.43,366.42 220.24,358.76 222.42,350.93C222.787,349.623 222.953,349.647 222.92,351C222.213,381.547 227.763,410.963 239.57,439.25C240.677,441.897 242.77,446.607 245.85,453.38C255.17,473.87 267.23,493.26 280.8,511.18C289.04,522.04 297.2,532.21 306.7,542.06C328.91,565.07 353.67,585.28 379.53,603.98Z" style="fill:rgb(84,190,9);fill-rule:nonzero;"/>
    </g>
    <g transform="matrix(0.691001,0,0,0.691001,-112.639,-113.701)">
        <path d="M626.33,449C627.323,459.147 628.927,469.573 631.14,480.28C631.144,480.303 631.147,480.326 631.148,480.349C631.156,480.59 630.969,480.796 630.733,480.804C630.709,480.805 630.684,480.803 630.66,480.8C619.72,479.233 609.553,476.177 600.16,471.63C582.94,463.283 570.207,450.92 561.96,434.54C556.08,418.307 554.277,402.02 556.55,385.68C558.11,374.39 562.08,364.17 568.3,354.78C569.373,353.16 569.657,353.287 569.15,355.16C563.4,376.34 568.38,398.77 580.37,416.9C591.363,433.533 606.683,444.233 626.33,449Z" style="fill:rgb(99,124,129);fill-rule:nonzero;"/>
    </g>
    <g transform="matrix(0.691001,0,0,0.691001,-112.639,-113.701)">
        <path d="M299.29,649.98C298.917,650.013 298.657,650.143 298.51,650.37C298.337,650.623 298.357,650.86 298.57,651.08L299.72,652.23C300.02,652.523 300,652.793 299.66,653.04C298.88,653.593 298.533,654.453 298.62,655.62C298.693,656.62 298.363,657.473 297.63,658.18C297.457,658.353 297.37,658.56 297.37,658.8L297.37,659.76C297.37,660.12 297.273,660.475 297.09,660.79C295.823,662.897 294.843,665.13 294.15,667.49C294.057,667.817 294.16,667.91 294.46,667.77C294.607,667.697 294.7,667.853 294.74,668.24C294.767,668.493 294.75,668.74 294.69,668.98C294.357,670.247 294.19,671.64 294.19,673.16C294.19,673.433 294.307,673.637 294.54,673.77C295.08,674.09 295.41,674.617 295.53,675.35C295.54,675.414 295.545,675.479 295.545,675.544C295.545,676.235 294.976,676.804 294.285,676.804C294.223,676.804 294.161,676.799 294.1,676.79C293.22,676.657 292.58,676.28 292.18,675.66C292.013,675.407 291.79,675.33 291.51,675.43C291.203,675.53 291.037,675.817 291.01,676.29C278.89,666.697 267.263,656.557 256.13,645.87C249.21,639.223 242.43,632.277 235.79,625.03C233.303,621.737 230.827,618.353 228.36,614.88C225.907,611.433 223.7,607.88 221.74,604.22C216.073,593.667 210.887,582.877 206.18,571.85C204.587,568.123 203.23,564.31 202.11,560.41C201.74,559.1 202.22,557.77 201.43,556.75C201.157,556.403 201.037,556.01 201.07,555.57C201.263,553.117 201.157,550.93 200.75,549.01C200.41,547.43 199.517,545.94 198.07,544.54C197.83,544.307 197.547,544.19 197.22,544.19C195.56,544.157 193.907,543.593 192.26,542.5C190.8,541.527 189.283,540.777 187.71,540.25C187.41,540.143 187.143,539.983 186.91,539.77C186.263,539.183 185.527,538.71 184.7,538.35C184.347,538.19 184.123,537.913 184.03,537.52C183.943,537.173 183.767,536.883 183.5,536.65L178.6,532.42C178.597,532.416 178.593,532.412 178.589,532.409C178.566,532.394 178.532,532.405 178.514,532.433C178.513,532.435 178.511,532.437 178.51,532.44C178.477,532.533 178.423,532.603 178.35,532.65C178.063,532.817 177.907,532.737 177.88,532.41C177.78,531.21 177.83,530.05 178.03,528.93C178.037,528.89 178.023,528.863 177.99,528.85C177.957,528.83 177.927,528.833 177.9,528.86C177.873,528.887 177.863,528.917 177.87,528.95C177.99,529.67 177.847,530.033 177.44,530.04C178.54,508.02 181.763,486.32 187.11,464.94C191.01,449.353 196.237,434.327 202.79,419.86C203.43,418.453 203.603,418.51 203.31,420.03C202.49,424.27 201.99,428.63 202,432.99C202.013,448.643 202.49,461.903 203.43,472.77C204.33,483.137 205.563,491.793 207.13,498.74C209.14,507.66 211.06,516.95 213.86,525.55C219.753,543.623 227.483,561.047 237.05,577.82C252.7,605.26 274.75,629.94 299.29,649.98Z" style="fill:rgb(84,190,9);fill-rule:nonzero;"/>
    </g>
    <g transform="matrix(0.691001,0,0,0.691001,-112.639,-113.701)">
        <path d="M266.77,535.78C270.983,542.387 275.85,549.42 281.37,556.88C299.53,581.41 322.18,603.14 346.65,621.08C351.977,624.987 357.363,628.813 362.81,632.56C365.41,634.347 370.817,637.803 379.03,642.93C384.237,646.17 389.55,649.753 394.97,653.68C395.63,654.153 396.323,654.583 397.05,654.97C397.15,655.023 397.233,655.003 397.3,654.91L397.3,654.9C397.373,654.793 397.36,654.697 397.26,654.61C391.6,650.14 386.34,645.15 380.67,640.72C373.903,635.447 367.177,630.137 360.49,624.79C361.483,623.95 362.433,624.187 363.34,625.5C364.14,626.667 365.307,627.47 366.84,627.91C367.038,627.963 367.245,627.886 367.35,627.72C367.523,627.453 367.527,627.237 367.36,627.07C367.256,626.961 367.225,626.8 367.28,626.66C368.073,624.727 369.133,623.6 370.46,623.28C371.333,623.073 371.947,622.563 372.3,621.75C372.42,621.477 372.62,621.287 372.9,621.18C373.36,621.007 373.69,620.717 373.89,620.31C374.55,618.94 375.87,618.42 376.43,616.91C376.543,616.597 376.72,616.33 376.96,616.11C378.507,614.69 379.717,612.957 380.59,610.91C380.723,610.603 380.93,610.537 381.21,610.71C381.297,610.763 381.403,610.74 381.53,610.64C381.69,610.513 381.787,610.35 381.82,610.15C381.88,609.843 382.077,609.75 382.41,609.87C382.677,609.963 382.873,609.88 383,609.62C383.047,609.533 383.033,609.46 382.96,609.4C382.493,608.987 382.56,608.703 383.16,608.55C383.253,608.523 383.323,608.46 383.37,608.36C383.437,608.207 383.397,608.097 383.25,608.03C382.983,607.903 382.713,607.853 382.44,607.88C382.113,607.907 381.863,607.78 381.69,607.5L379.53,603.98C388.86,610.68 398.24,617.59 407.57,623.94C428.72,638.34 449.75,654.19 466.84,672.05C496.58,703.14 514.46,746.26 508.26,789.2C505.12,810.94 497.39,829.59 484.83,847.84C475.27,861.74 462.65,873.02 449.34,882.78C448.847,883.14 448.78,883.073 449.14,882.58C450.06,881.307 451.033,880.057 452.06,878.83C455,875.303 457.543,871.143 459.69,866.35C475.07,832.06 476.79,795.36 461.94,760.78C447.72,727.66 420.28,701.43 391.14,681.39C381.187,674.55 371.11,667.873 360.91,661.36C357.123,658.947 348.78,653.28 335.88,644.36C323.12,635.54 310.26,624.3 298.69,613.25C266.98,582.95 244.72,543.13 231.04,501C229.593,496.547 226.79,485.87 222.63,468.97C222.71,468.05 222.77,467.48 222.81,467.26C223.077,465.813 223.483,465.767 224.03,467.12C224.123,467.347 224.297,467.457 224.55,467.45C225.563,467.41 226.43,467.117 227.15,466.57C227.597,466.237 227.993,466.287 228.34,466.72C228.553,466.98 228.827,467.12 229.16,467.14C229.527,467.167 229.79,467.347 229.95,467.68C232.57,473.12 235.233,478.443 237.94,483.65C239.727,487.07 241.483,490.697 243.21,494.53C244.87,498.217 246.683,501.82 248.65,505.34C252.197,511.68 255.79,518.247 259.43,525.04C261.523,528.947 263.97,532.527 266.77,535.78ZM439.49,691.44C440.94,693.05 442.73,694.69 443.99,696.39C448.33,702.21 453.23,707.63 457.4,713.51C460.787,718.297 464.123,723.307 467.41,728.54C467.457,728.62 467.523,728.637 467.61,728.59L467.62,728.59C467.7,728.537 467.72,728.467 467.68,728.38C460.447,714.387 451.067,702.057 439.54,691.39C439.147,691.023 439.13,691.04 439.49,691.44Z" style="fill:rgb(53,137,0);fill-rule:nonzero;"/>
    </g>
    <g transform="matrix(0.691001,0,0,0.691001,-112.639,-113.701)">
        <path d="M517.59,667.45L517.37,667.56C517.31,667.593 517.263,667.58 517.23,667.52C513.617,660.433 510.563,655.107 508.07,651.54C500.577,640.807 490.643,629.29 478.27,616.99C468.55,607.33 460.49,599.923 454.09,594.77C438.623,582.323 424.133,570.447 410.62,559.14C392.073,543.633 374.487,526.387 357.86,507.4C349.42,497.77 341.24,487.02 333.32,476.96C332.933,476.467 332.947,476.453 333.36,476.92C349.727,495.507 367.913,513.397 387.92,530.59C402.13,542.81 416.23,554.91 430.53,566.78C443.27,577.353 455.18,587.827 466.26,598.2C476.75,608.02 485.9,619.1 494.92,630.24C503.673,641.04 511.243,653.403 517.63,667.33C517.657,667.383 517.643,667.423 517.59,667.45Z" style="fill:white;fill-rule:nonzero;"/>
    </g>
    <g transform="matrix(0.691001,0,0,0.691001,-112.639,-113.701)">
        <path d="M790.05,567.87C800.24,568.58 810.76,567.86 820.94,566.47C829.333,565.317 836.967,562.69 843.84,558.59C844.26,558.337 844.317,558.4 844.01,558.78C831.43,574.33 812.71,582.32 792.78,582.76C779.05,583.07 764.5,582.05 751.66,577.11C737.04,571.477 725.013,564.533 715.58,556.28C704.42,546.513 695.143,536.063 687.75,524.93C687.517,524.579 687.494,524.129 687.69,523.76C692.08,515.56 698.08,510.39 708.26,513.15C708.798,513.291 709.259,513.644 709.54,514.13C712.247,518.857 715.183,523.39 718.35,527.73C735.02,550.52 761.38,565.86 790.05,567.87Z" style="fill:white;fill-rule:nonzero;"/>
    </g>
    <g transform="matrix(0.691001,0,0,0.691001,-112.639,-113.701)">
        <path d="M235.79,625.03C238.13,628.757 240.463,632.327 242.79,635.74C258.457,658.68 277.297,679.063 299.31,696.89C308.62,704.43 318.38,712.06 328.09,719.15C346.8,732.82 364.22,746.18 381.04,762.22C386.387,767.32 391.1,772.373 395.18,777.38C406.393,791.153 414.573,807.3 419.72,825.82C421.613,832.64 422.767,839.42 423.18,846.16C423.367,849.313 423.35,856.067 423.13,866.42C423.13,866.5 423.087,866.543 423,866.55L422.73,866.58C422.683,866.58 422.66,866.56 422.66,866.52C422.087,862.38 421.303,858.543 420.31,855.01C411.57,823.82 387.48,797.29 360.78,778.16C352.72,772.38 343.87,766.527 334.23,760.6C309.4,745.35 284.97,731.02 262.49,714.19C245.377,701.377 229.95,685.837 216.21,667.57C206.363,654.483 198.63,640.827 193.01,626.6C186.963,611.3 182.663,596.147 180.11,581.14C177.537,566.04 176.647,549.007 177.44,530.04C177.847,530.033 177.99,529.67 177.87,528.95C177.863,528.917 177.873,528.887 177.9,528.86C177.927,528.833 177.957,528.83 177.99,528.85C178.023,528.863 178.037,528.89 178.03,528.93C177.83,530.05 177.78,531.21 177.88,532.41C177.907,532.737 178.063,532.817 178.35,532.65C178.423,532.603 178.477,532.533 178.51,532.44C178.511,532.437 178.513,532.435 178.514,532.433C178.532,532.405 178.566,532.394 178.589,532.409C178.593,532.412 178.597,532.416 178.6,532.42L183.5,536.65C183.767,536.883 183.943,537.173 184.03,537.52C184.123,537.913 184.347,538.19 184.7,538.35C185.527,538.71 186.263,539.183 186.91,539.77C187.143,539.983 187.41,540.143 187.71,540.25C189.283,540.777 190.8,541.527 192.26,542.5C193.907,543.593 195.56,544.157 197.22,544.19C197.547,544.19 197.83,544.307 198.07,544.54C199.517,545.94 200.41,547.43 200.75,549.01C201.157,550.93 201.263,553.117 201.07,555.57C201.037,556.01 201.157,556.403 201.43,556.75C202.22,557.77 201.74,559.1 202.11,560.41C203.23,564.31 204.587,568.123 206.18,571.85C210.887,582.877 216.073,593.667 221.74,604.22C223.7,607.88 225.907,611.433 228.36,614.88C230.827,618.353 233.303,621.737 235.79,625.03Z" style="fill:rgb(53,137,0);fill-rule:nonzero;"/>
    </g>
    <g transform="matrix(0.691001,0,0,0.691001,-112.639,-113.701)">
        <path d="M266.77,535.78C277.317,548.92 284.193,557.11 287.4,560.35C297.887,570.963 308.617,581.32 319.59,591.42C332.58,603.37 346.71,613.8 360.49,624.79C367.177,630.137 373.903,635.447 380.67,640.72C386.34,645.15 391.6,650.14 397.26,654.61C397.36,654.697 397.373,654.793 397.3,654.9L397.3,654.91C397.233,655.003 397.15,655.023 397.05,654.97C396.323,654.583 395.63,654.153 394.97,653.68C389.55,649.753 384.237,646.17 379.03,642.93C370.817,637.803 365.41,634.347 362.81,632.56C357.363,628.813 351.977,624.987 346.65,621.08C322.18,603.14 299.53,581.41 281.37,556.88C275.85,549.42 270.983,542.387 266.77,535.78Z" style="fill:white;fill-rule:nonzero;"/>
    </g>
    <g transform="matrix(0.691001,0,0,0.691001,-112.639,-113.701)">
        <path d="M765.77,615.39C753.64,610.41 745.11,601.69 737.09,591.34C736.697,590.827 736.79,590.71 737.37,590.99C739.05,591.79 740.55,592.83 742.33,593.57C760.54,601.2 779.57,603.13 799.06,601.34C799.077,601.339 799.093,601.338 799.11,601.338C799.439,601.338 799.71,601.609 799.71,601.938C799.71,601.939 799.71,601.939 799.71,601.94L799.7,615.31C799.701,615.798 799.373,616.232 798.9,616.37C786.707,619.783 775.663,619.457 765.77,615.39Z" style="fill:white;fill-rule:nonzero;"/>
    </g>
    <g transform="matrix(0.691001,0,0,0.691001,-112.639,-113.701)">
        <path d="M747.43,632.05C745.57,627.657 743.72,623.397 741.88,619.27C741.373,618.137 741.503,618.06 742.27,619.04C755.92,636.58 776.16,644.73 797.9,639.01C797.926,639.003 797.953,638.999 797.981,638.999C798.151,638.999 798.291,639.139 798.291,639.309C798.291,639.316 798.29,639.323 798.29,639.33C798.03,644.257 797.76,649.113 797.48,653.9C797.4,655.38 795.95,655.73 794.64,656.1C773.82,661.87 755.54,651.22 747.43,632.05Z" style="fill:white;fill-rule:nonzero;"/>
    </g>
    <g transform="matrix(0.691001,0,0,0.691001,-112.639,-113.701)">
        <path d="M299.29,649.98C327.01,672.69 358.18,689.9 387.09,711.14C394.357,716.487 402.23,723.317 410.71,731.63C422.817,743.51 432.403,757.94 439.47,774.92C445.39,789.153 447.927,803.54 447.08,818.08C446.727,824.24 446.057,830.363 445.07,836.45C444.983,836.983 444.893,836.983 444.8,836.45C443.08,827.03 440.507,817.597 437.08,808.15C422.66,768.41 388.04,740.96 353.78,719.11C338.393,709.303 324.41,700.157 311.83,691.67C305.23,687.217 298.29,682.09 291.01,676.29C291.037,675.817 291.203,675.53 291.51,675.43C291.79,675.33 292.013,675.407 292.18,675.66C292.58,676.28 293.22,676.657 294.1,676.79C294.161,676.799 294.223,676.804 294.285,676.804C294.976,676.804 295.545,676.235 295.545,675.544C295.545,675.479 295.54,675.414 295.53,675.35C295.41,674.617 295.08,674.09 294.54,673.77C294.307,673.637 294.19,673.433 294.19,673.16C294.19,671.64 294.357,670.247 294.69,668.98C294.75,668.74 294.767,668.493 294.74,668.24C294.7,667.853 294.607,667.697 294.46,667.77C294.16,667.91 294.057,667.817 294.15,667.49C294.843,665.13 295.823,662.897 297.09,660.79C297.273,660.475 297.37,660.12 297.37,659.76L297.37,658.8C297.37,658.56 297.457,658.353 297.63,658.18C298.363,657.473 298.693,656.62 298.62,655.62C298.533,654.453 298.88,653.593 299.66,653.04C300,652.793 300.02,652.523 299.72,652.23L298.57,651.08C298.357,650.86 298.337,650.623 298.51,650.37C298.657,650.143 298.917,650.013 299.29,649.98Z" style="fill:rgb(53,137,0);fill-rule:nonzero;"/>
    </g>
    <g transform="matrix(0.691001,0,0,0.691001,-112.639,-113.701)">
        <path d="M748.42,663.83C748.113,662.95 747.643,661.997 747.01,660.97C746.964,660.898 746.94,660.815 746.94,660.73C746.933,660.55 747,660.443 747.14,660.41C747.18,660.403 747.21,660.417 747.23,660.45C749.55,663.177 751.677,665.61 753.61,667.75C759.57,674.323 767.033,678.33 776,679.77C779.387,680.317 783.417,680.49 788.09,680.29C790.243,680.197 792.167,679.813 793.86,679.14C793.9,679.124 793.942,679.116 793.985,679.116C794.166,679.116 794.315,679.265 794.315,679.446C794.315,679.464 794.313,679.482 794.31,679.5L792.14,693.85C792.04,694.53 791.653,694.947 790.98,695.1C779.44,697.73 768.31,695.46 760.06,687.03C753.7,680.54 751.26,672.07 748.42,663.83Z" style="fill:white;fill-rule:nonzero;"/>
    </g>
    <g transform="matrix(0.691001,0,0,0.691001,-112.639,-113.701)">
        <path d="M443.99,696.39C442.73,694.69 440.94,693.05 439.49,691.44C439.13,691.04 439.147,691.023 439.54,691.39C451.067,702.057 460.447,714.387 467.68,728.38C467.72,728.467 467.7,728.537 467.62,728.59L467.61,728.59C467.523,728.637 467.457,728.62 467.41,728.54C464.123,723.307 460.787,718.297 457.4,713.51C453.23,707.63 448.33,702.21 443.99,696.39Z" style="fill:white;fill-rule:nonzero;"/>
    </g>
    <g transform="matrix(0.691001,0,0,0.691001,-112.639,-113.701)">
        <path d="M782.68,733.98C768.4,735.83 756.82,727.95 752.33,714.67C750.75,709.983 749.627,705.35 748.96,700.77C748.847,700.003 749.003,699.943 749.43,700.59C758.523,714.33 771.55,720.217 788.51,718.25C788.53,718.248 788.55,718.247 788.57,718.249C788.723,718.264 788.836,718.406 788.821,718.565C788.819,718.583 788.815,718.602 788.81,718.62L784.48,732.47C784.224,733.28 783.52,733.871 782.68,733.98Z" style="fill:white;fill-rule:nonzero;"/>
    </g>
    <g transform="matrix(0.691001,0,0,0.691001,-112.639,-113.701)">
        <path d="M766.66,757.19C766.927,758.137 767.683,758.933 768.93,759.58C771.243,760.773 773.163,761.62 774.69,762.12L771.21,770.85C771.09,771.152 770.801,771.354 770.48,771.36C764.153,771.527 758.803,769.39 754.43,764.95C747.25,757.66 746.84,748.31 745.62,738.58C745.54,737.953 745.76,737.82 746.28,738.18C746.727,738.493 746.993,739.053 747.08,739.86C747.147,740.48 747.287,740.977 747.5,741.35C749.333,744.583 751.287,747.103 753.36,748.91C756.767,751.883 761.2,754.643 766.66,757.19Z" style="fill:rgb(99,124,129);fill-rule:nonzero;"/>
    </g>
    <g transform="matrix(0.691001,0,0,0.691001,-112.639,-113.701)">
        <path d="M766.66,757.19C769.647,758.283 772.833,758.597 776.22,758.13C776.573,758.077 776.67,758.21 776.51,758.53L774.69,762.12C773.163,761.62 771.243,760.773 768.93,759.58C767.683,758.933 766.927,758.137 766.66,757.19Z" style="fill:white;fill-rule:nonzero;"/>
    </g>
    <g transform="matrix(0.691001,0,0,0.691001,-112.639,-113.701)">
        <path d="M750.35,804.74C742.083,802.247 737.31,797.29 736.03,789.87C735.13,784.67 736.8,778.93 738.23,773.87C738.437,773.137 738.66,773.13 738.9,773.85C739.91,776.92 741.04,779.79 743.13,782.3C747.143,787.113 752.527,790.383 759.28,792.11C759.64,792.199 759.896,792.525 759.896,792.896C759.896,793.079 759.834,793.257 759.72,793.4L750.99,804.53C750.823,804.75 750.61,804.82 750.35,804.74Z" style="fill:rgb(99,124,129);fill-rule:nonzero;"/>
    </g>
    <g transform="matrix(0.691001,0,0,0.691001,-112.639,-113.701)">
        <path d="M735.2,821.9C735.381,821.989 735.496,822.174 735.496,822.376C735.496,822.506 735.448,822.633 735.36,822.73C732.647,825.737 729.587,828.543 726.18,831.15C725.785,831.447 725.252,831.482 724.83,831.24C718.64,827.68 713.19,820.69 717.97,813.45C719.63,810.937 721.297,808.557 722.97,806.31C723.857,805.117 724.42,805.253 724.66,806.72C725.827,813.88 729.34,818.94 735.2,821.9Z" style="fill:rgb(99,124,129);fill-rule:nonzero;"/>
    </g>
</svg>
